<mxfile host="65bd71144e">
    <diagram id="EkbzLBLIBplIt1xAg-zi" name="Page-1">
        <mxGraphModel dx="1579" dy="1631" grid="1" gridSize="10" guides="1" tooltips="1" connect="1" arrows="1" fold="1" page="1" pageScale="1" pageWidth="850" pageHeight="1100" math="0" shadow="0">
            <root>
                <mxCell id="0"/>
                <mxCell id="1" parent="0"/>
                <mxCell id="9" style="edgeStyle=none;html=1;exitX=1;exitY=1;exitDx=0;exitDy=0;" edge="1" parent="1" source="2" target="3">
                    <mxGeometry relative="1" as="geometry"/>
                </mxCell>
                <mxCell id="2" value="main&lt;div&gt;&lt;br&gt;&lt;/div&gt;" style="ellipse;whiteSpace=wrap;html=1;rounded=1;sketch=1;curveFitting=1;jiggle=2;" vertex="1" parent="1">
                    <mxGeometry x="230" width="150" height="80" as="geometry"/>
                </mxCell>
                <mxCell id="3" value="Sidepar" style="ellipse;whiteSpace=wrap;html=1;aspect=fixed;" vertex="1" parent="1">
                    <mxGeometry x="490" y="170" width="80" height="80" as="geometry"/>
                </mxCell>
                <mxCell id="10" style="edgeStyle=none;html=1;exitX=0.5;exitY=1;exitDx=0;exitDy=0;" edge="1" parent="1" source="4" target="5">
                    <mxGeometry relative="1" as="geometry">
                        <mxPoint x="150" y="290" as="sourcePoint"/>
                    </mxGeometry>
                </mxCell>
                <mxCell id="11" style="edgeStyle=none;html=1;exitX=0;exitY=1;exitDx=0;exitDy=0;" edge="1" parent="1" source="4" target="6">
                    <mxGeometry relative="1" as="geometry"/>
                </mxCell>
                <mxCell id="4" value="projects&lt;div&gt;&lt;br&gt;&lt;/div&gt;" style="ellipse;whiteSpace=wrap;html=1;aspect=fixed;" vertex="1" parent="1">
                    <mxGeometry x="60" y="170" width="80" height="80" as="geometry"/>
                </mxCell>
                <mxCell id="5" value="Newprojects" style="ellipse;whiteSpace=wrap;html=1;aspect=fixed;" vertex="1" parent="1">
                    <mxGeometry x="180" y="290" width="80" height="80" as="geometry"/>
                </mxCell>
                <mxCell id="6" value="No projects" style="ellipse;whiteSpace=wrap;html=1;aspect=fixed;" vertex="1" parent="1">
                    <mxGeometry y="290" width="80" height="80" as="geometry"/>
                </mxCell>
                <mxCell id="7" value="Modal&lt;div&gt;&lt;br&gt;&lt;/div&gt;" style="ellipse;whiteSpace=wrap;html=1;aspect=fixed;" vertex="1" parent="1">
                    <mxGeometry x="90" y="430" width="80" height="80" as="geometry"/>
                </mxCell>
                <mxCell id="8" value="" style="endArrow=none;dashed=1;html=1;exitX=0.908;exitY=0.249;exitDx=0;exitDy=0;exitPerimeter=0;" edge="1" parent="1" source="4" target="2">
                    <mxGeometry width="50" height="50" relative="1" as="geometry">
                        <mxPoint x="330" y="250" as="sourcePoint"/>
                        <mxPoint x="380" y="200" as="targetPoint"/>
                        <Array as="points"/>
                    </mxGeometry>
                </mxCell>
                <mxCell id="12" style="edgeStyle=none;html=1;entryX=0.333;entryY=0.018;entryDx=0;entryDy=0;entryPerimeter=0;" edge="1" parent="1" source="4" target="7">
                    <mxGeometry relative="1" as="geometry"/>
                </mxCell>
                <mxCell id="13" value="tasks&lt;div&gt;and setTask2&lt;/div&gt;&lt;div&gt;to avoid prop dirlling&lt;/div&gt;" style="ellipse;whiteSpace=wrap;html=1;aspect=fixed;" vertex="1" parent="1">
                    <mxGeometry x="265" y="-130" width="80" height="80" as="geometry"/>
                </mxCell>
                <mxCell id="14" value="Container" style="swimlane;" vertex="1" parent="1">
                    <mxGeometry x="-10" y="-40" width="650" height="570" as="geometry"/>
                </mxCell>
            </root>
        </mxGraphModel>
    </diagram>
</mxfile>